<?xml version="1.0" encoding="iso-8859-1"?>
<!-- Generator: Adobe Illustrator 16.0.0, SVG Export Plug-In . SVG Version: 6.00 Build 0)  -->
<!DOCTYPE svg PUBLIC "-//W3C//DTD SVG 1.1//EN" "http://www.w3.org/Graphics/SVG/1.1/DTD/svg11.dtd">
<svg version="1.1" id="Capa_1" xmlns="http://www.w3.org/2000/svg" xmlns:xlink="http://www.w3.org/1999/xlink" x="0px" y="0px"
	 width="893.897px" height="893.897px" viewBox="0 0 893.897 893.897" style="enable-background:new 0 0 893.897 893.897;"
	 xml:space="preserve">
<g>
	<g>
		<path d="M0.443,196.699c3.8,50.3,13.4,105.4,34.3,154.9c1.9,4.4,6.1,6.8,10.3,6.8c3,0,6-1.1,8.3-3.6c0,0,280.3-303,280.9-303.6
			c6.3-6.8,1.4-19.2-8.3-19.2h-173C63.943,32.099-6.257,107.999,0.443,196.699z"/>
		<path d="M836.442,634.299c8.1-35,9-78.2,9-115.601c0-28.399,1-73.6-2.6-124.8c-10.301-1.6-19.801-6.6-26.9-14.3l-281-303.6
			c-10.3-11.2-14.4-26.6-11.3-41.1c-22.3-2.1-49.8-3.1-76.799-3.1c-27.301,0-54.4,1-76.7,3.1c3.1,14.5-0.9,29.9-11.3,41.1
			l-280.8,303.6c-7.1,7.7-16.7,12.7-26.9,14.3c-3.6,51.2-2.6,96.4-2.6,124.8c0,37.4,0.9,80.5,9,115.601c3-6.8,6-13.101,8.9-19
			c21.3-42.8,51-85.5,85.7-123.5c15.8-17.2,32.2-33.101,49.2-47.5c-17.5-9.5-29.3-28-29.3-49.3c0-30.9,25.1-56,56-56
			c28.5,0,52,21.4,55.5,49c18.7-9.9,45.4-18.101,64.4-24.601v-82.3c0-9.7,7.8-17.5,17.5-17.5s17.5,7.8,17.5,17.5v72.4
			c16-3.5,31-5.9,47-7.101v-104.3c0-9.5,7.6-17.2,17-17.5c10,0.3,17,8,17,17.5v104.3c16,1.2,31,3.601,47,7.101v-72.4
			c0-9.7,7.8-17.5,17.5-17.5s17.5,7.8,17.5,17.5v82.4c19,6.5,45.8,14.699,64.5,24.6c3.5-27.6,27-49,55.6-49c30.9,0,56,25.1,56,56
			c0,21.3-11.899,39.8-29.3,49.3c17,14.4,33.4,30.3,49.2,47.5c34.7,38,64.4,80.7,85.7,123.5
			C830.442,621.198,833.442,627.599,836.442,634.299z"/>
		<path d="M859.143,351.599c20.899-49.4,30.5-104.6,34.3-154.9c6.8-88.7-63.4-164.6-152.5-164.6h-173c-9.7,0-14.5,12.4-8.3,19.2
			c0.6,0.6,280.899,303.6,280.899,303.6c2.301,2.5,5.301,3.601,8.301,3.601C853.143,358.499,857.343,355.999,859.143,351.599z"/>
		<path d="M824.442,729.999c0-14.5-3.1-31.5-8.8-50.101c-37-118.6-186-300.399-368.5-300.399c-0.101,0-0.2,0-0.2,0
			c-0.1,0-0.1,0-0.2,0c-182.5,0-331.4,181.899-368.4,300.399c-5.8,18.601-8.8,35.601-8.8,50.101c0,66.699,63.3,79.3,111.1,79.3
			c29,0,52.4-4.601,52.4-4.601c65.7,57.301,213.1,57.4,213.7,57.4l0,0c0,0,0.101,0,0.2,0l0,0h0.3l0,0c0.601,0,148.1-0.1,213.7-57.4
			c0,0,23.3,4.601,52.4,4.601C761.143,809.299,824.442,796.698,824.442,729.999z M511.143,576.099H382.843
			c-13.101,0-23.2-11.6-21.601-24.6c5.2-42.101,35.3-104.9,85.7-104.601c50-0.3,80.5,62.601,85.799,104.601
			C534.343,564.499,524.143,576.099,511.143,576.099z"/>
	</g>
</g>
<g>
</g>
<g>
</g>
<g>
</g>
<g>
</g>
<g>
</g>
<g>
</g>
<g>
</g>
<g>
</g>
<g>
</g>
<g>
</g>
<g>
</g>
<g>
</g>
<g>
</g>
<g>
</g>
<g>
</g>
</svg>
