<?xml version="1.0" encoding="iso-8859-1"?>
<!-- Generator: Adobe Illustrator 16.0.0, SVG Export Plug-In . SVG Version: 6.00 Build 0)  -->
<!DOCTYPE svg PUBLIC "-//W3C//DTD SVG 1.1//EN" "http://www.w3.org/Graphics/SVG/1.1/DTD/svg11.dtd">
<svg version="1.1" id="Capa_1" xmlns="http://www.w3.org/2000/svg" xmlns:xlink="http://www.w3.org/1999/xlink" x="0px" y="0px"
	 width="940.216px" height="940.217px" viewBox="0 0 940.216 940.217" style="enable-background:new 0 0 940.216 940.217;"
	 xml:space="preserve">
<g>
	<g>
		<g>
			<path d="M706.228,127.059c7.5,7.1,14.8,14.6,21.8,22.4c25.9,28.9,47.4,61.6,64.2,97.3c15.2-13.8,35.6-18,52.899,28.8
				c32.2,86.8,152.101-8.8,62.4-111.2C837.728,84.659,744.228,111.359,706.228,127.059z"/>
			<path d="M828.127,623.159c0-46.9-11.3-94.1-34.1-135.201c-37.7-68.099-103-113.699-177.6-115.899c4.1,11,6.199,22.399,6.199,34.1
				c0,17.8-4.699,34.8-14,50.7c-8.399,14.3-20.1,26.9-34.899,37.5c-28.101,20.301-64.9,31.4-103.601,31.4
				c-38.699,0-75.5-11.1-103.6-31.4c-14.8-10.699-26.5-23.199-34.9-37.5c-9.3-15.9-14-33-14-50.7c0-11.7,2.101-23.2,6.2-34.1
				c-74.7,2.2-140,47.8-177.6,115.899c-22.7,41.102-34.1,88.301-34.1,135.201c0,139,97.3,251.199,217.3,251.199
				c44.699,0,86.3-15.5,120.899-42.299c6.3-4.9,12.2-10.701,18-15.602c0.5-0.398,1.101-0.6,1.8-0.6c0.601,0,1.301,0.201,1.801,0.6
				c5.8,4.9,11.8,10.701,18.1,15.602c34.6,26.799,76.2,42.398,120.9,42.398C730.828,874.458,828.127,762.159,828.127,623.159z
				 M236.828,714.259c-4,4.199-9.6,6.801-15.8,6.801c-0.7,0-1.4,0-2-0.102c-11.1-1-19.7-10.299-19.7-21.6c0-0.299,0-0.6,0-0.9
				c0.3-6.898,3.8-13,9.1-16.699c3.6-2.6,7.9-4.1,12.7-4.1c2.7,0,5.2,0.5,7.6,1.4c6.8,2.5,12,8.398,13.6,15.6
				c0.3,1.5,0.5,3.1,0.5,4.799C242.828,705.159,240.528,710.358,236.828,714.259z M284.127,638.958c-12,0-21.7-9.699-21.7-21.699
				s9.7-21.699,21.7-21.699c12,0,21.7,9.699,21.7,21.699S296.127,638.958,284.127,638.958z M328.028,733.458
				c-12,0-21.7-9.699-21.7-21.699s9.7-21.699,21.7-21.699s21.7,9.699,21.7,21.699S340.028,733.458,328.028,733.458z
				 M612.328,733.458c-12,0-21.7-9.699-21.7-21.699s9.7-21.699,21.7-21.699s21.7,9.699,21.7,21.699S624.328,733.458,612.328,733.458
				z M656.228,638.958c-12,0-21.7-9.699-21.7-21.699s9.7-21.699,21.7-21.699s21.7,9.699,21.7,21.699
				S668.228,638.958,656.228,638.958z M721.328,720.958c-0.7,0.102-1.3,0.102-2,0.102c-6.2,0-11.8-2.602-15.8-6.801
				c-3.7-3.9-5.9-9.1-5.9-14.9c0-1.6,0.2-3.199,0.5-4.799c1.601-7.201,6.801-13,13.601-15.602c2.399-0.898,4.899-1.398,7.6-1.398
				c4.7,0,9.101,1.5,12.7,4.1c5.3,3.799,8.8,9.799,9.1,16.699c0,0.301,0,0.6,0,0.9C741.028,710.659,732.328,719.958,721.328,720.958
				z"/>
			<path d="M470.028,321.359c-26.1,0-50,6.1-69.5,16.5c-9.1,4.8-17.1,10.5-23.9,17c-5.8,5.5-10.699,11.5-14.5,18
				c-6.1,10.2-9.399,21.5-9.399,33.3c0,46.8,52.5,84.7,117.399,84.7l0,0h0.101h0.1l0,0c64.9,0,117.5-37.9,117.5-84.7
				c0-11.8-3.399-23.1-9.399-33.3c-3.801-6.5-8.7-12.5-14.5-18c-6.801-6.5-14.9-12.2-23.9-17
				C520.228,327.459,496.228,321.359,470.028,321.359C470.127,321.359,470.028,321.359,470.028,321.359
				S470.127,321.359,470.028,321.359z"/>
			<path d="M95.128,275.559c17.3-46.7,37.8-42.6,52.9-28.8c16.8-35.7,38.3-68.4,64.2-97.3c7-7.8,14.3-15.3,21.8-22.4
				c-38-15.7-131.5-42.5-201.4,37.3C-56.972,266.759,62.928,362.359,95.128,275.559z"/>
			<path d="M182.628,255.659c-25.6,52-40.2,111.7-40.3,175.2c2.2-2.8,4.4-5.5,6.7-8.1c23-26.601,49.9-47.601,79.9-62.4
				c31.5-15.5,65-23.4,99.7-23.5l16.7,0.1c6.2-6.9,13.3-13.1,21.2-18.9c28.1-20.3,64.9-31.2,103.6-31.2
				c38.7,0,75.5,10.9,103.601,31.2c8,5.8,15.1,12,21.2,18.9l16.699-0.1c34.601,0.1,68.2,8,99.7,23.5
				c30.101,14.8,56.9,35.7,79.9,62.4c2.3,2.699,4.5,5.399,6.7,8.1c-0.101-63.5-14.7-123.2-40.301-175.2
				c-6.699-13.5-14.1-26.5-22.1-38.9c-59.6-91.5-156.3-151-265.399-151l0,0h-0.101l0,0c-109.1,0.1-205.7,59.5-265.2,151
				C196.728,229.259,189.328,242.159,182.628,255.659z M669.627,236.859c18.101,0,32.801,14.7,32.801,32.8
				c0,18.1-14.7,32.8-32.801,32.8c-18.1,0-32.8-14.7-32.8-32.8C636.728,251.559,651.428,236.859,669.627,236.859z M270.728,236.859
				c18.1,0,32.8,14.7,32.8,32.8c0,18.1-14.7,32.8-32.8,32.8c-18.1,0-32.8-14.7-32.8-32.8
				C237.828,251.559,252.628,236.859,270.728,236.859z"/>
		</g>
	</g>
</g>
<g>
</g>
<g>
</g>
<g>
</g>
<g>
</g>
<g>
</g>
<g>
</g>
<g>
</g>
<g>
</g>
<g>
</g>
<g>
</g>
<g>
</g>
<g>
</g>
<g>
</g>
<g>
</g>
<g>
</g>
</svg>
