<?xml version="1.0" encoding="iso-8859-1"?>
<!-- Generator: Adobe Illustrator 16.0.0, SVG Export Plug-In . SVG Version: 6.00 Build 0)  -->
<!DOCTYPE svg PUBLIC "-//W3C//DTD SVG 1.1//EN" "http://www.w3.org/Graphics/SVG/1.1/DTD/svg11.dtd">
<svg version="1.1" id="Capa_1" xmlns="http://www.w3.org/2000/svg" xmlns:xlink="http://www.w3.org/1999/xlink" x="0px" y="0px"
	 width="957.792px" height="957.792px" viewBox="0 0 957.792 957.792" style="enable-background:new 0 0 957.792 957.792;"
	 xml:space="preserve">
<g>
	<g>
		<g>
			<path d="M0.096,638.296c-1.9,33.4,24.8,61.4,58.2,61.4c31.8,0,57.7-25.5,58.3-57.2c1.4-80.7,13.4-229.8,76.6-333.8
				c7.7-42.2,20.9-79.8,39.5-112.2C153.396,233.796,16.696,340.996,0.096,638.296z"/>
			<path d="M957.696,638.296c-16.601-297.3-153.301-404.5-232.601-441.9c18.601,32.3,31.9,69.9,39.5,112.2
				c63.2,104,75.2,253.101,76.601,333.8c0.6,31.801,26.5,57.2,58.3,57.2C932.896,699.696,959.596,671.596,957.696,638.296z"/>
			<path d="M710.696,243.996c-38.101-91-127.101-149.2-225.801-149.2c-4,0-8.1,0-12.1,0c-98.7,0-187.6,58.2-225.7,149.2
				c-12.5,30-21.5,65.4-25.6,108.2c-25.5,272.1,179.5,510,257.2,510.8c78-0.9,282.8-238.7,257.3-510.8
				C732.096,309.396,723.196,273.996,710.696,243.996z M371.796,261.796c-19.8,0-35.9-16.1-35.9-35.9c0-19.8,16.101-35.9,35.9-35.9
				s35.9,16.1,35.9,35.9C407.696,245.696,391.596,261.796,371.796,261.796z M478.796,805.296c-39.3-0.3-71.1-33.7-71.1-71.5
				c0-19.9,35.5-29.9,71.1-30c36,0.1,71.1,10.1,71.1,30C549.896,771.696,518.796,805.096,478.796,805.296z M585.996,261.796
				c-19.8,0-35.9-16.1-35.9-35.9c0-19.8,16.101-35.9,35.9-35.9s35.899,16.1,35.899,35.9
				C621.996,245.696,605.896,261.796,585.996,261.796z"/>
		</g>
	</g>
</g>
<g>
</g>
<g>
</g>
<g>
</g>
<g>
</g>
<g>
</g>
<g>
</g>
<g>
</g>
<g>
</g>
<g>
</g>
<g>
</g>
<g>
</g>
<g>
</g>
<g>
</g>
<g>
</g>
<g>
</g>
</svg>
