<?xml version="1.0" encoding="iso-8859-1"?>
<!-- Generator: Adobe Illustrator 16.0.0, SVG Export Plug-In . SVG Version: 6.00 Build 0)  -->
<!DOCTYPE svg PUBLIC "-//W3C//DTD SVG 1.1//EN" "http://www.w3.org/Graphics/SVG/1.1/DTD/svg11.dtd">
<svg version="1.1" id="Capa_1" xmlns="http://www.w3.org/2000/svg" xmlns:xlink="http://www.w3.org/1999/xlink" x="0px" y="0px"
	 width="949.024px" height="949.025px" viewBox="0 0 949.024 949.025" style="enable-background:new 0 0 949.024 949.025;"
	 xml:space="preserve">
<g>
	<g>
		<path d="M226.812,756.362c38.3-51.399,36.1-99.699,39.2-144c1.5-20.5-0.3-41.1-5.2-61.1c-7.6-30.9-16.3-61-24.6-89.5
			c-17.6-60.6-32.8-112.9-32.8-157c0-38.9,3.3-69.3,10.5-95.3c-51.6,29-118.9,78.8-180.2,162.6
			C-87.988,538.163,153.412,854.862,226.812,756.362z"/>
		<path d="M734.213,208.962c7.299,26.1,10.6,56.6,10.6,95.8c0,44.1-15.201,96.4-32.801,156.9c-8,27.399-16.299,56.1-23.699,85.699
			c-5.1,20.601-7.1,41.9-5.5,63.101c3.4,44.8,0.5,93.7,39.4,145.899c73.398,98.5,314.799-218.199,193.1-384.3
			C853.713,287.762,786.012,237.762,734.213,208.962z"/>
		<path d="M687.812,186.462c-10.401-19.4-24.801-35.2-43.601-50.7c-15.301-12.6-36-16.7-57-16.7c-42.601,0-86.101,17.7-86.101,17.7
			h-53.899c0,0-43.5-17.7-86.101-17.7c-21,0-41.7,4-57,16.5c-19,15.6-33.5,31.6-43.9,51.3c-15,28.3-21.8,64.3-21.8,117.8
			c0,56.2,30.3,136,53.5,226.2c14.2,55.5,25.7,115,25.7,175.301c0,106.399,70.7,123.8,117.101,123.8c22.699,0,39.6-4.2,39.6-4.2
			s16.799,4.2,39.4,4.2c46.399,0,117.199-17.4,117.199-123.9c0-60.6,11.601-120.3,25.9-176c23.1-89.899,53.2-169.3,53.2-225.4
			C709.912,250.962,703.012,214.862,687.812,186.462z M325.412,393.762c0-29.8,24.101-53.9,53.9-53.9s53.9,24.1,53.9,53.9
			s-24.101,53.9-53.9,53.9S325.412,423.562,325.412,393.762z M474.212,732.462c0,0-75.9-18-75.9-83.7s51.4-12.9,75.9-12.9
			c24.5,0,75.899-52.8,75.899,12.9C550.111,714.362,474.212,732.462,474.212,732.462z M567.911,447.663
			c-29.8,0-53.899-24.101-53.899-53.9s24.1-53.9,53.899-53.9c29.801,0,53.9,24.1,53.9,53.9S597.611,447.663,567.911,447.663z"/>
	</g>
</g>
<g>
</g>
<g>
</g>
<g>
</g>
<g>
</g>
<g>
</g>
<g>
</g>
<g>
</g>
<g>
</g>
<g>
</g>
<g>
</g>
<g>
</g>
<g>
</g>
<g>
</g>
<g>
</g>
<g>
</g>
</svg>
