<?xml version="1.0" encoding="utf-8"?>
<!-- Generator: Adobe Illustrator 15.0.0, SVG Export Plug-In  -->
<!DOCTYPE svg PUBLIC "-//W3C//DTD SVG 1.1//EN" "http://www.w3.org/Graphics/SVG/1.1/DTD/svg11.dtd" [
	<!ENTITY ns_flows "http://ns.adobe.com/Flows/1.0/">
]>
<svg version="1.1"
	 xmlns="http://www.w3.org/2000/svg" xmlns:xlink="http://www.w3.org/1999/xlink" xmlns:a="http://ns.adobe.com/AdobeSVGViewerExtensions/3.0/"
	 x="0px" y="0px" width="100px" height="100px" viewBox="-8.587 -0.809 100 100" enable-background="new -8.587 -0.809 100 100"
	 xml:space="preserve">
<defs>
</defs>
<path fill="#A67C52" d="M59.898,80.294c-1.366-0.945-3.291-1.196-4.847-1.662c-1.536-0.463-3.371-0.867-3.931-2.563
	c-0.689-2.093-1.35-4.111-1.701-6.402c-0.127-0.831-0.165-2.213-0.435-3.536c-2.998,1.386-6.352,2.179-9.991,2.179
	c-4.089,0-7.933-0.965-11.176-2.67c-0.816,1.413-1.405,3.383-1.405,6.173c0,0,0,8.104,0,8.104c0,0.056,0.14,0.106,0.141,0.16
	c-0.001,0.021,0.043,0.041,0.043,0.063l0.352,15.066c0.24,1.604,0.923,3.768,1.404,3.768c0.588,0,1.207-1.895,1.504-3.285
	c0.003-0.017,0.221-5.213,0.219-9.52c0.54,0.429,1.114,0.811,1.709,1.148l0.269,8.317c0.24,1.603,0.962,3.339,1.443,3.339
	c0.587,0,1.146-1.948,1.443-3.339c0.004-0.014,0.271-3.407,0.271-6.936c1.11,0.317,2.259,0.587,3.384,0.712
	c0.582,0.065,1.231-0.099,1.793,0.082c0.776,0.248,0.94,1.032,1.204,1.709c0.252,0.651,0.613,1.216,1.049,1.762l-0.701,0.319
	c-1.603,0-3.313,0.463-3.313,0.794c0,0.404,2.055,1.114,3.446,1.114c0.007,0,0.956,0,2.37,0l-0.633,0.114
	c-1.603,0-3.473,0.427-3.473,0.792c0,0.443,2.055,1.005,3.446,1.229c1.732,0.261,3.684-0.042,5.432-0.025
	c2.39,0.021,4.778,0.07,7.169,0.041c1.508-0.019,5.441-6.541,5.433-10.143C61.809,84.435,62.456,82.063,59.898,80.294z"/>
<path fill="#A67C52" d="M64.665,85.782c-0.595,0.062-1.62,0.396-1.578,2.379c0.408-0.262,0.926-1.491,2.292-0.816
	c1.378,0.679,2.18,2.68,1.593,4.332c-0.854,2.401-5.77,1.545-7.641,1.74l-7.881,1.256c-0.562,0-1.096-0.212-1.586-0.407
	c0.901,1.219,2.337,1.926,3.973,1.926h10.614c2.733,0,4.962-2.025,4.962-4.76v-0.357c0-1.294-0.316-2.591-1.158-3.602
	C67.251,86.262,65.987,85.646,64.665,85.782z"/>
<path fill="#945136" d="M12.023,78.24c0.026,0.054,0.054,0.107,0.086,0.159c0.031-0.053,0.066-0.105,0.104-0.157
	C12.149,78.24,12.086,78.24,12.023,78.24z"/>
<path fill="#A67C52" d="M63.297,43.021C62.136,56.096,52.417,66.6,38.994,66.6S16.052,56.31,14.689,43.021
	C13.36,30.067,25.571,19.442,38.994,19.442S64.451,30.05,63.297,43.021z"/>
<path fill="#A67C52" d="M0.154,0c0,0-1.528,15.202,5.044,26.757c6.735,11.843,18.596,17.008,23.767,13.29
	c5.17-3.719,4.27-16.818-5.044-26.758C14.561,3.3,0.154,0,0.154,0z M20.034,28.865c-3.823,2.75-10.715,3.136-15.306-5.827
	C0.051,13.907,1.001,3.264,1.001,3.264s10.041,2.51,17.563,9.822C25.784,20.103,23.853,26.117,20.034,28.865z"/>
<path fill="#A67C52" d="M55.26,14.222c-8.963,10.258-9.408,23.381-4.111,26.918c5.297,3.537,16.97-2.039,23.289-14.109
	c6.166-11.777,4.109-26.917,4.109-26.917S64.264,3.914,55.26,14.222z M60.604,13.833C67.869,6.264,77.816,3.406,77.816,3.406
	s1.317,10.604-3.039,19.893c-4.273,9.116-11.176,8.971-15.093,6.356C55.772,27.04,53.633,21.098,60.604,13.833z"/>
<circle stroke="#FFFFFF" stroke-width="0.25" stroke-miterlimit="10" cx="24.955" cy="43.159" r="4.388"/>
<ellipse cx="37.561" cy="52.355" rx="5.24" ry="3.313"/>
<path d="M22.553,36.533c1.737-0.331,3.341-0.25,4.481,0.131c-0.696-1.023-2.469-1.537-4.407-1.167
	c-1.749,0.334-3.117,1.288-3.567,2.356C19.965,37.279,21.168,36.798,22.553,36.533z"/>
<path d="M53.322,36.421c1.751,0.24,3.245,0.832,4.204,1.556c-0.335-1.192-1.849-2.246-3.804-2.514
	c-1.763-0.242-3.364,0.224-4.134,1.093C50.63,36.301,51.924,36.229,53.322,36.421z"/>
<circle stroke="#FFFFFF" stroke-width="0.25" stroke-miterlimit="10" cx="52.311" cy="43.159" r="4.389"/>
<path d="M38.103,59.491c-2.247,0.112-4.263-0.504-5.649-1.532c0.729,2.086,2.895,3.545,5.402,3.421
	c2.259-0.111,4.131-1.476,4.857-3.317C41.484,58.861,39.891,59.405,38.103,59.491z"/>
<path fill="#D86880" d="M37.498,60.457c-0.804,0-1.382-0.377-2.1-0.652c-0.569-0.221-0.558,0.876-0.607,1.193
	c-0.04,0.262-0.066,0.527-0.066,0.793c0,2.206,1.366,3.994,3.051,3.994c1.685,0,3.049-1.788,3.049-3.994
	c0-0.474-0.062-0.948-0.192-1.402c-0.052-0.174-0.112-0.47-0.21-0.616c-0.18-0.271-0.489,0.047-0.698,0.158
	C39.06,60.299,38.249,60.457,37.498,60.457z"/>
<polyline fill="#AA555F" points="37.374,60.457 37.729,64.289 37.977,60.454 "/>
</svg>
