<?xml version="1.0" encoding="iso-8859-1"?>
<!-- Generator: Adobe Illustrator 16.0.0, SVG Export Plug-In . SVG Version: 6.00 Build 0)  -->
<!DOCTYPE svg PUBLIC "-//W3C//DTD SVG 1.1//EN" "http://www.w3.org/Graphics/SVG/1.1/DTD/svg11.dtd">
<svg version="1.1" id="Capa_1" xmlns="http://www.w3.org/2000/svg" xmlns:xlink="http://www.w3.org/1999/xlink" x="0px" y="0px"
	 width="904.6px" height="904.6px" viewBox="0 0 904.6 904.6" style="enable-background:new 0 0 904.6 904.6;" xml:space="preserve"
	>
<g>
	<g>
		<path d="M776.95,673.1c69.8,2,73.8-103.699,73.8-183.5c0-29.199,1.101-76.199-3-129.199c-9.3-2-18-6.801-24.5-13.9L542.45,42.9
			c-9.4-10.1-13.6-23.7-12-37c-45.2-4.3-107.9-4.2-151.9-0.2c1.7,13.3-2.5,27-11.899,37.2L85.75,346.5c-7.1,7.6-16.5,12.6-26.6,14.3
			c-4,52.9-2.9,99.7-2.9,128.8c0,79.801,4,185.5,73.8,183.5c13.1-0.399,32.8,7.5,56,20.601c-0.5-11.4-0.7-23.2-0.7-35.3
			c0-60.4,11-112.801,32.7-155.601c18.7-36.899,45.2-66.899,78.9-89c58.3-38.6,122.5-42.8,147.4-42.8c4.1,0,14.599,0,18.599,0
			c24.9,0,89.1,4.2,147.6,42.7c33.601,22.1,60.2,52.1,78.9,89c21.7,42.8,32.7,95.2,32.7,155.6c0,12-0.2,23.7-0.7,35
			C744.45,680.5,763.85,672.7,776.95,673.1z M281.45,376.5c-23.7,0-42.8-19.2-42.8-42.8c0-23.7,19.2-42.8,42.8-42.8
			c23.7,0,42.8,19.2,42.8,42.8C324.351,357.3,305.15,376.5,281.45,376.5z M401.65,299.7c-9.4,17.3-48.5,7.9-64.9-26.8
			c-16.399-34.7-70.2-20.4-70.399-63.8c-0.101-29.9,21.899-33.9,21.899-33.9l59.7,7.1c28.1,3.3,50.4,25.7,53.6,54
			C404.55,262.4,406.351,291,401.65,299.7z M570.25,273c-16.399,34.7-55.5,44.1-64.899,26.8c-4.7-8.8-2.9-37.3,0.1-63.4
			c3.3-28.4,25.5-50.7,53.6-54l59.7-7.1c0,0,22,3.9,21.9,33.9C640.45,252.6,586.65,238.3,570.25,273z M625.85,376.5
			c-23.7,0-42.801-19.2-42.801-42.8c0-23.7,19.2-42.8,42.801-42.8c23.699,0,42.8,19.2,42.8,42.8
			C668.65,357.3,649.549,376.5,625.85,376.5z"/>
		<path d="M496.15,506.3c-6.601-11.5-24.2-19.5-42.7-19.5c-18.5,0-36.099,8-42.7,19.5c-8.8,15.3,1.9,38.2,9.101,50.5
			C434.75,582.4,446.05,611.5,453.45,643.4c7.4-31.9,18.7-61,33.6-86.601c7.301-12.5,11.601-24.3,12.301-33.899
			C499.85,516.4,498.85,510.9,496.15,506.3z"/>
		<path d="M49.55,326.4c3,0,6-1.1,8.3-3.6c0,0,279.9-302.6,280.9-303.6c2.4-2.6,3.101-6,2.601-9.3c-0.9-5.2-5-9.9-10.801-9.9h-173.1
			c-89,0-159.2,75.9-152.5,164.6c3.8,50.3,13.4,105.4,34.3,154.9C41.05,323.9,45.25,326.4,49.55,326.4z"/>
		<path d="M747.15,0c0,0-172.7,0-173,0c-9.4,0-15,11.9-8.3,19.2L846.75,322.8c2.3,2.5,5.3,3.6,8.3,3.6c4.301,0,8.5-2.4,10.301-6.8
			c20.899-49.4,30.5-104.7,34.3-154.9C906.35,75.9,836.15,0,747.15,0z"/>
		<path d="M524.049,883.5c10.7,12.1,28.801,21.1,49.2,21.1c44.7,0,100.2-42.899,111.601-188.6c1.399-17.6,2.1-36.9,2.1-57.6
			c0-237.9-180.7-252.301-224.2-252.301c-5.899,0-12.7,0-18.599,0c-43.4,0-224.2,14.4-224.2,252.301c0,20.899,0.8,40.199,2.2,57.899
			c11.5,145.4,67,188.3,111.6,188.3c20.4,0,38.5-8.899,49.2-21c15.7-17.8,27.7-43.3,35.4-73.1c18.399-71.1,12.1-166.2-28.7-236
			c-47-80.6,11.8-122.6,63.799-122.6c52.1,0,110.9,42,63.8,122.6c-40.7,69.8-47.1,164.8-28.7,236
			C496.35,840.1,508.35,865.7,524.049,883.5z M286.55,665.9c-9.399,0-16.899-7.601-16.899-16.9s7.6-16.9,16.899-16.9
			c9.4,0,16.9,7.601,16.9,16.9S295.851,665.9,286.55,665.9z M288.55,597.9c-9.399,0-16.899-7.601-16.899-16.9s7.6-16.9,16.899-16.9
			c9.4,0,16.9,7.601,16.9,16.9S297.851,597.9,288.55,597.9z M342.55,633.9c-9.399,0-16.899-7.601-16.899-16.9s7.6-16.9,16.899-16.9
			c9.4,0,16.9,7.601,16.9,16.9S351.851,633.9,342.55,633.9z M620.549,665.9c-9.399,0-16.899-7.601-16.899-16.9s7.6-16.9,16.899-16.9
			c9.4,0,16.9,7.601,16.9,16.9S629.85,665.9,620.549,665.9z M618.549,564.1c9.4,0,16.9,7.601,16.9,16.9s-7.6,16.9-16.9,16.9
			c-9.399,0-16.899-7.601-16.899-16.9S609.15,564.1,618.549,564.1z M564.549,600.1c9.4,0,16.9,7.601,16.9,16.9s-7.6,16.9-16.9,16.9
			c-9.399,0-16.899-7.601-16.899-16.9S555.15,600.1,564.549,600.1z"/>
	</g>
</g>
<g>
</g>
<g>
</g>
<g>
</g>
<g>
</g>
<g>
</g>
<g>
</g>
<g>
</g>
<g>
</g>
<g>
</g>
<g>
</g>
<g>
</g>
<g>
</g>
<g>
</g>
<g>
</g>
<g>
</g>
</svg>
